<!-- <svg width="1500" height="554" viewBox="0 0 1500 554" fill="none" xmlns="http://www.w3.org/2000/svg">
 <path
  d="M455.625 488.766C353.156 473.669 246.187 466.467 141.281 475.331C93.2812 479.278 45.9375 486.827 0 498.461V553.999H791.062C682.406 531.008 574.688 506.84 465.187 490.151C462 489.666 458.812 489.25 455.625 488.766Z"
  fill="#007FDE" />
 <path
  d="M1500 0H0V498.462C45.9375 486.828 93.2812 479.21 141.281 475.263C246.188 466.468 353.156 473.601 455.625 488.697C458.812 489.182 462 489.667 465.188 490.082C574.688 506.702 682.406 530.94 791.062 553.931H1500V0Z"
  fill="#0783E0" />
 <path
  d="M448.5 402.343C451.5 402.897 454.5 403.52 457.406 404.074C641.344 440.43 821.812 496.523 1013.81 526.369C1177.12 551.715 1341.47 546.59 1500 519.306V0H0V398.118C49.0312 385.93 99.8438 378.936 151.031 376.72C251.625 372.15 352.219 383.784 448.5 402.343Z"
  fill="#0E87E1" />
 <path
  d="M0 0V297.359C52.125 284.617 106.406 278.454 160.688 278.177C257.062 277.623 351.188 293.897 441.281 315.918C444.094 316.611 446.813 317.303 449.625 317.996C621.75 360.931 792.469 419.17 976.875 451.025C1151.91 481.287 1329.66 474.847 1499.91 442.3V0H0Z"
  fill="#389CE7" />
 <path
  d="M170.438 179.634C262.5 183.789 350.344 204.01 434.156 229.564C436.781 230.326 439.312 231.156 441.938 231.918C602.25 281.501 763.219 341.679 940.031 375.75C1126.41 411.622 1318.22 404.004 1500 365.501V0H0V196.116C55.3125 182.543 113.062 177.072 170.438 179.634Z"
  fill="#54AAEB" />
 <path
  d="M1500 0H0V94.3877C58.4062 79.9145 119.719 75.344 180.187 81.0917C267.937 89.471 349.406 114.124 427.031 143.14C429.469 144.04 431.812 144.94 434.25 145.84C582.75 202.002 733.969 264.189 903.281 300.406C1100.62 342.649 1307.16 334.339 1500.09 288.911V0H1500Z"
  fill="#6FB8EF" />
 <path
  d="M426.469 59.7628C563.156 122.573 704.625 186.49 866.344 225.062C1061.91 271.737 1270.69 267.167 1464.38 221.392C1476.38 218.553 1488.19 215.575 1500.09 212.459V0H270.094C322.594 14.7502 372 35.0405 419.812 56.785C422.062 57.7545 424.219 58.7933 426.469 59.7628Z"
  fill="#8BC6F3" />
 <path
  d="M1500 0H466.875C577.594 59.4165 695.156 113.916 829.5 149.719C1009.31 197.64 1204.5 201.448 1387.31 164.33C1425.56 156.574 1463.34 146.879 1500.09 135.453V0H1500Z"
  fill="#A6D4F7" />
 <path
  d="M1310.16 107.199C1354.41 99.8585 1397.91 89.6787 1440.09 76.8675C1460.44 70.7042 1480.41 63.8485 1500 56.4387V0H603.188C662.156 28.8772 724.781 54.1535 792.656 74.3745C956.625 123.334 1138.31 135.799 1310.16 107.199Z"
  fill="#C2E2FB" />
 <path
  d="M1233.09 50.137C1303.69 41.4115 1372.69 24.4453 1436.34 0H758.531C906.375 49.1675 1073.16 69.9425 1233.09 50.137Z"
  fill="#DDF0FF" />
</svg> -->

<svg width="1500" height="554" viewBox="0 0 1500 554" fill="none" xmlns="http://www.w3.org/2000/svg">
 <path fill="#007FDE">
  <animate attributeName="d" dur="6s" repeatCount="indefinite" values="
      M455.625 488.766C353.156 473.669 246.187 466.467 141.281 475.331C93.2812 479.278 45.9375 486.827 0 498.461V553.999H791.062C682.406 531.008 574.688 506.84 465.187 490.151C462 489.666 458.812 489.25 455.625 488.766Z;
      M455.625 490.766C353.156 480.669 246.187 470.467 141.281 478.331C93.2812 482.278 45.9375 492.827 0 502.461V553.999H791.062C682.406 535.008 574.688 510.84 465.187 492.151C462 491.666 458.812 491.25 455.625 490.766Z;
      M455.625 488.766C353.156 473.669 246.187 466.467 141.281 475.331C93.2812 479.278 45.9375 486.827 0 498.461V553.999H791.062C682.406 531.008 574.688 506.84 465.187 490.151C462 489.666 458.812 489.25 455.625 488.766Z
    " />
 </path>

 <path fill="#0783E0">
  <animate attributeName="d" dur="7s" repeatCount="indefinite" values="
      M1500 0H0V498.462C45.9375 486.828 93.2812 479.21 141.281 475.263C246.188 466.468 353.156 473.601 455.625 488.697C458.812 489.182 462 489.667 465.188 490.082C574.688 506.702 682.406 530.94 791.062 553.931H1500V0Z;
      M1500 0H0V496.462C45.9375 484.828 93.2812 477.21 141.281 473.263C246.188 464.468 353.156 471.601 455.625 486.697C458.812 487.182 462 487.667 465.188 488.082C574.688 504.702 682.406 528.94 791.062 551.931H1500V0Z;
      M1500 0H0V498.462C45.9375 486.828 93.2812 479.21 141.281 475.263C246.188 466.468 353.156 473.601 455.625 488.697C458.812 489.182 462 489.667 465.188 490.082C574.688 506.702 682.406 530.94 791.062 553.931H1500V0Z
    " />
 </path>

 <path fill="#0E87E1">
  <animate attributeName="d" dur="8s" repeatCount="indefinite" values="
      M448.5 402.343C451.5 402.897 454.5 403.52 457.406 404.074C641.344 440.43 821.812 496.523 1013.81 526.369C1177.12 551.715 1341.47 546.59 1500 519.306V0H0V398.118C49.0312 385.93 99.8438 378.936 151.031 376.72C251.625 372.15 352.219 383.784 448.5 402.343Z;      
      M448.5 405.343C451.5 405.897 454.5 406.52 457.406 407.074C641.344 443.43 821.812 499.523 1013.81 529.369C1177.12 554.715 1341.47 549.59 1500 522.306V0H0V401.118C49.0312 388.93 99.8438 381.936 151.031 379.72C251.625 375.15 352.219 386.784 448.5 405.343Z;
      M448.5 402.343C451.5 402.897 454.5 403.52 457.406 404.074C641.344 440.43 821.812 496.523 1013.81 526.369C1177.12 551.715 1341.47 546.59 1500 519.306V0H0V398.118C49.0312 385.93 99.8438 378.936 151.031 376.72C251.625 372.15 352.219 383.784 448.5 402.343Z
    " />
 </path>

 <path fill="#389CE7">
  <animate attributeName="d" dur="8s" repeatCount="indefinite" values="
      M0 0V297.359C52.125 284.617 106.406 278.454 160.688 278.177C257.062 277.623 351.188 293.897 441.281 315.918C444.094 316.611 446.813 317.303 449.625 317.996C621.75 360.931 792.469 419.17 976.875 451.025C1151.91 481.287 1329.66 474.847 1499.91 442.3V0H0Z;
      M0 0V299.359C52.125 288.617 106.406 281.454 160.688 281.177C257.062 280.623 351.188 296.897 441.281 318.918C444.094 319.611 446.813 320.303 449.625 320.996C621.75 363.931 792.469 422.17 976.875 454.025C1151.91 484.287 1329.66 477.847 1499.91 445.3V0H0Z;
      M0 0V297.359C52.125 284.617 106.406 278.454 160.688 278.177C257.062 277.623 351.188 293.897 441.281 315.918C444.094 316.611 446.813 317.303 449.625 317.996C621.75 360.931 792.469 419.17 976.875 451.025C1151.91 481.287 1329.66 474.847 1499.91 442.3V0H0Z
    " />
 </path>

 <path
  d="M170.438 179.634C262.5 183.789 350.344 204.01 434.156 229.564C436.781 230.326 439.312 231.156 441.938 231.918C602.25 281.501 763.219 341.679 940.031 375.75C1126.41 411.622 1318.22 404.004 1500 365.501V0H0V196.116C55.3125 182.543 113.062 177.072 170.438 179.634Z"
  fill="#54AAEB" />
 <path
  d="M1500 0H0V94.3877C58.4062 79.9145 119.719 75.344 180.187 81.0917C267.937 89.471 349.406 114.124 427.031 143.14C429.469 144.04 431.812 144.94 434.25 145.84C582.75 202.002 733.969 264.189 903.281 300.406C1100.62 342.649 1307.16 334.339 1500.09 288.911V0H1500Z"
  fill="#6FB8EF" />
 <path
  d="M426.469 59.7628C563.156 122.573 704.625 186.49 866.344 225.062C1061.91 271.737 1270.69 267.167 1464.38 221.392C1476.38 218.553 1488.19 215.575 1500.09 212.459V0H270.094C322.594 14.7502 372 35.0405 419.812 56.785C422.062 57.7545 424.219 58.7933 426.469 59.7628Z"
  fill="#8BC6F3" />
 <path
  d="M1500 0H466.875C577.594 59.4165 695.156 113.916 829.5 149.719C1009.31 197.64 1204.5 201.448 1387.31 164.33C1425.56 156.574 1463.34 146.879 1500.09 135.453V0H1500Z"
  fill="#A6D4F7" />
 <path
  d="M1310.16 107.199C1354.41 99.8585 1397.91 89.6787 1440.09 76.8675C1460.44 70.7042 1480.41 63.8485 1500 56.4387V0H603.188C662.156 28.8772 724.781 54.1535 792.656 74.3745C956.625 123.334 1138.31 135.799 1310.16 107.199Z"
  fill="#C2E2FB" />
 <path
  d="M1233.09 50.137C1303.69 41.4115 1372.69 24.4453 1436.34 0H758.531C906.375 49.1675 1073.16 69.9425 1233.09 50.137Z"
  fill="#DDF0FF" />
</svg>