<svg width="57" height="57" viewBox="0 0 57 57" fill="none" xmlns="http://www.w3.org/2000/svg">
  <g clip-path="url(#clip0_1224_142)">
    <path
      d="M26.1261 43.9634L27.885 49.3063M7.55818 14.5442L23.587 9.26744C24.2955 9.03419 25.0676 9.09195 25.7335 9.42802C26.3995 9.76408 26.9046 10.3509 27.1379 11.0594L38.4609 45.4545C38.4901 45.5431 38.4828 45.6396 38.4408 45.7228C38.3988 45.8061 38.3255 45.8692 38.2369 45.8984L17.1991 52.8241L5.76618 18.0951C5.53293 17.3866 5.59069 16.6144 5.92676 15.9485C6.26282 15.2826 6.84966 14.7774 7.55818 14.5442ZM31.9914 21.3056L41.3416 18.2275C42.0501 17.9942 42.8222 18.052 43.4882 18.388C44.1541 18.7241 44.6592 19.3109 44.8925 20.0195L51.9281 41.3912L38.5708 45.7884L31.0954 23.081C30.9788 22.7268 31.0077 22.3407 31.1757 22.0077C31.3438 21.6748 31.6372 21.4222 31.9914 21.3056Z"
      stroke="currentColor" stroke-linecap="round" stroke-linejoin="round" />
    <path
      d="M20.0562 47.4297C19.7915 47.5569 19.4936 47.5981 19.2043 47.5474C18.9149 47.4967 18.6488 47.3567 18.4431 47.147C18.2374 46.9373 18.1025 46.6685 18.0574 46.3782C18.0123 46.088 18.0592 45.7909 18.1916 45.5287C18.3239 45.2665 18.535 45.0523 18.7953 44.9161C19.0556 44.78 19.3519 44.7288 19.6428 44.7697C19.9337 44.8106 20.2044 44.9416 20.4171 45.1442C20.6297 45.3468 20.7736 45.6109 20.8285 45.8995C20.8864 46.204 20.8421 46.5191 20.7024 46.7958C20.5628 47.0726 20.3356 47.2954 20.0562 47.4297ZM17.8576 40.751C17.5929 40.8783 17.2949 40.9194 17.0056 40.8687C16.7163 40.818 16.4501 40.678 16.2444 40.4683C16.0388 40.2586 15.9039 39.9898 15.8588 39.6996C15.8137 39.4093 15.8606 39.1123 15.9929 38.85C16.1252 38.5878 16.3364 38.3736 16.5966 38.2375C16.8569 38.1014 17.1533 38.0502 17.4442 38.0911C17.735 38.1319 18.0058 38.2629 18.2184 38.4655C18.4311 38.6681 18.5749 38.9323 18.6298 39.2208C18.6878 39.5253 18.6434 39.8404 18.5038 40.1172C18.3641 40.3939 18.137 40.6167 17.8576 40.751ZM15.6589 34.0724C15.3942 34.1996 15.0963 34.2408 14.807 34.1901C14.5177 34.1394 14.2515 33.9994 14.0458 33.7897C13.8401 33.58 13.7053 33.3112 13.6601 33.0209C13.615 32.7307 13.6619 32.4336 13.7943 32.1714C13.9266 31.9092 14.1377 31.6949 14.398 31.5588C14.6583 31.4227 14.9546 31.3715 15.2455 31.4124C15.5364 31.4533 15.8071 31.5842 16.0198 31.7869C16.2324 31.9895 16.3763 32.2536 16.4312 32.5421C16.4891 32.8467 16.4448 33.1618 16.3051 33.4385C16.1655 33.7152 15.9383 33.9381 15.6589 34.0724ZM13.4603 27.3937C13.1956 27.521 12.8976 27.5621 12.6083 27.5114C12.319 27.4607 12.0528 27.3207 11.8471 27.111C11.6415 26.9013 11.5066 26.6325 11.4615 26.3423C11.4164 26.052 11.4633 25.7549 11.5956 25.4927C11.728 25.2305 11.9391 25.0163 12.1994 24.8802C12.4596 24.7441 12.756 24.6928 13.0469 24.7337C13.3377 24.7746 13.6085 24.9056 13.8211 25.1082C14.0338 25.3108 14.1776 25.5749 14.2325 25.8635C14.2905 26.168 14.2462 26.4831 14.1065 26.7599C13.9668 27.0366 13.7397 27.2594 13.4603 27.3937ZM11.2616 20.7151C10.9969 20.8423 10.699 20.8835 10.4097 20.8328C10.1204 20.7821 9.85418 20.6421 9.6485 20.4324C9.44282 20.2227 9.30796 19.9539 9.26285 19.6636C9.21774 19.3734 9.26464 19.0763 9.39698 18.8141C9.52931 18.5518 9.74043 18.3376 10.0007 18.2015C10.261 18.0654 10.5574 18.0142 10.8482 18.0551C11.1391 18.096 11.4098 18.2269 11.6225 18.4296C11.8351 18.6322 11.979 18.8963 12.0339 19.1848C12.0918 19.4894 12.0475 19.8045 11.9079 20.0812C11.7682 20.3579 11.541 20.5808 11.2616 20.7151ZM24.5362 38.5524C24.2715 38.6796 23.9736 38.7208 23.6843 38.6701C23.395 38.6194 23.1288 38.4794 22.9231 38.2697C22.7174 38.06 22.5826 37.7912 22.5374 37.5009C22.4923 37.2107 22.5392 36.9136 22.6716 36.6514C22.8039 36.3892 23.015 36.175 23.2753 36.0388C23.5356 35.9027 23.8319 35.8515 24.1228 35.8924C24.4137 35.9333 24.6844 36.0642 24.8971 36.2669C25.1097 36.4695 25.2536 36.7336 25.3085 37.0222C25.3664 37.3267 25.3221 37.6418 25.1824 37.9185C25.0428 38.1953 24.8156 38.4181 24.5362 38.5524ZM22.3376 31.8737C22.0729 32.001 21.7749 32.0421 21.4856 31.9914C21.1963 31.9407 20.9301 31.8007 20.7244 31.591C20.5188 31.3813 20.3839 31.1125 20.3388 30.8223C20.2937 30.532 20.3406 30.235 20.4729 29.9727C20.6053 29.7105 20.8164 29.4963 21.0767 29.3602C21.3369 29.2241 21.6333 29.1729 21.9242 29.2138C22.215 29.2546 22.4858 29.3856 22.6984 29.5882C22.9111 29.7908 23.0549 30.055 23.1098 30.3435C23.1678 30.648 23.1235 30.9631 22.9838 31.2399C22.8441 31.5166 22.617 31.7394 22.3376 31.8737ZM20.139 25.1951C19.8742 25.3223 19.5763 25.3635 19.287 25.3128C18.9977 25.2621 18.7315 25.1221 18.5258 24.9124C18.3201 24.7027 18.1853 24.4339 18.1402 24.1436C18.095 23.8534 18.1419 23.5563 18.2743 23.2941C18.4066 23.0319 18.6177 22.8176 18.878 22.6815C19.1383 22.5454 19.4347 22.4942 19.7255 22.5351C20.0164 22.576 20.2871 22.7069 20.4998 22.9096C20.7124 23.1122 20.8563 23.3763 20.9112 23.6648C20.9691 23.9694 20.9248 24.2845 20.7852 24.5612C20.6455 24.8379 20.4183 25.0608 20.139 25.1951ZM17.9403 18.5164C17.6756 18.6437 17.3776 18.6848 17.0883 18.6341C16.799 18.5834 16.5328 18.4434 16.3272 18.2337C16.1215 18.024 15.9866 17.7552 15.9415 17.465C15.8964 17.1747 15.9433 16.8776 16.0756 16.6154C16.208 16.3532 16.4191 16.139 16.6794 16.0029C16.9396 15.8667 17.236 15.8155 17.5269 15.8564C17.8177 15.8973 18.0885 16.0283 18.3011 16.2309C18.5138 16.4335 18.6577 16.6976 18.7125 16.9862C18.7705 17.2907 18.7262 17.6058 18.5865 17.8826C18.4469 18.1593 18.2197 18.3821 17.9403 18.5164ZM33.4135 43.0324C33.1488 43.1596 32.8509 43.2008 32.5616 43.1501C32.2723 43.0994 32.0061 42.9594 31.8004 42.7497C31.5947 42.54 31.4599 42.2712 31.4147 41.9809C31.3696 41.6907 31.4165 41.3936 31.5489 41.1314C31.6812 40.8692 31.8923 40.655 32.1526 40.5188C32.4129 40.3827 32.7092 40.3315 33.0001 40.3724C33.291 40.4133 33.5617 40.5443 33.7744 40.7469C33.987 40.9495 34.1309 41.2136 34.1858 41.5022C34.2437 41.8067 34.1994 42.1218 34.0597 42.3985C33.9201 42.6753 33.6929 42.8981 33.4135 43.0324ZM31.2149 36.3537C30.9502 36.481 30.6522 36.5222 30.3629 36.4715C30.0736 36.4208 29.8074 36.2807 29.6017 36.071C29.3961 35.8614 29.2612 35.5925 29.2161 35.3023C29.171 35.012 29.2179 34.715 29.3502 34.4527C29.4826 34.1905 29.6937 33.9763 29.954 33.8402C30.2142 33.7041 30.5106 33.6529 30.8015 33.6938C31.0923 33.7347 31.3631 33.8656 31.5757 34.0682C31.7884 34.2708 31.9322 34.535 31.9871 34.8235C32.0451 35.128 32.0008 35.4431 31.8611 35.7199C31.7214 35.9966 31.4943 36.2194 31.2149 36.3537ZM29.0162 29.6751C28.7515 29.8023 28.4536 29.8435 28.1643 29.7928C27.875 29.7421 27.6088 29.6021 27.4031 29.3924C27.1974 29.1827 27.0626 28.9139 27.0175 28.6236C26.9723 28.3334 27.0192 28.0363 27.1516 27.7741C27.2839 27.5119 27.495 27.2977 27.7553 27.1615C28.0156 27.0254 28.312 26.9742 28.6028 27.0151C28.8937 27.056 29.1644 27.1869 29.3771 27.3896C29.5897 27.5922 29.7336 27.8563 29.7885 28.1449C29.8464 28.4494 29.8021 28.7645 29.6625 29.0412C29.5228 29.318 29.2956 29.5408 29.0162 29.6751Z"
      fill="currentColor" />
    <path
      d="M27.4655 22.3628C27.8144 21.6716 27.534 20.8271 26.8393 20.4765C26.1447 20.1259 25.2988 20.4021 24.9499 21.0933C24.6011 21.7845 24.8815 22.629 25.5762 22.9795C26.2708 23.3301 27.1167 23.054 27.4655 22.3628Z"
      fill="currentColor" />
    <path
      d="M24.6191 16.3178C24.3543 16.445 24.0564 16.4862 23.7671 16.4355C23.4778 16.3848 23.2116 16.2448 23.0059 16.0351C22.8002 15.8254 22.6654 15.5566 22.6203 15.2663C22.5752 14.9761 22.6221 14.679 22.7544 14.4168C22.8867 14.1546 23.0979 13.9404 23.3581 13.8042C23.6184 13.6681 23.9148 13.6169 24.2056 13.6578C24.4965 13.6987 24.7673 13.8297 24.9799 14.0323C25.1926 14.2349 25.3364 14.499 25.3913 14.7876C25.4492 15.0921 25.4049 15.4072 25.2653 15.6839C25.1256 15.9607 24.8984 16.1835 24.6191 16.3178ZM44.3857 36.4714C44.1215 36.5584 43.8891 36.7217 43.7177 36.9408C43.5464 37.1599 43.4438 37.4249 43.4231 37.7022C43.4024 37.9796 43.4643 38.2569 43.6012 38.499C43.738 38.7411 43.9436 38.9373 44.1919 39.0626C44.4402 39.1879 44.7201 39.2367 44.9961 39.203C45.2722 39.1692 45.5321 39.0544 45.7429 38.8729C45.9536 38.6915 46.1059 38.4516 46.1804 38.1836C46.2548 37.9156 46.2481 37.6316 46.1612 37.3674C46.0445 37.0131 45.792 36.7197 45.459 36.5517C45.126 36.3837 44.74 36.3548 44.3857 36.4714ZM42.1871 29.7927C41.9229 29.8797 41.6904 30.0431 41.5191 30.2622C41.3477 30.4812 41.2452 30.7462 41.2245 31.0236C41.2037 31.3009 41.2657 31.5782 41.4025 31.8203C41.5393 32.0625 41.7449 32.2586 41.9932 32.3839C42.2415 32.5092 42.5214 32.5581 42.7975 32.5243C43.0736 32.4906 43.3334 32.3757 43.5442 32.1943C43.755 32.0128 43.9072 31.7729 43.9817 31.5049C44.0562 31.237 44.0495 30.9529 43.9625 30.6887C43.8459 30.3345 43.5933 30.0411 43.2604 29.873C42.9274 29.705 42.5413 29.6761 42.1871 29.7927ZM39.9884 23.1141C39.7242 23.2011 39.4918 23.3644 39.3204 23.5835C39.1491 23.8026 39.0466 24.0676 39.0258 24.3449C39.0051 24.6223 39.067 24.8996 39.2039 25.1417C39.3407 25.3838 39.5463 25.58 39.7946 25.7053C40.0429 25.8306 40.3228 25.8794 40.5988 25.8457C40.8749 25.8119 41.1348 25.697 41.3456 25.5156C41.5564 25.3341 41.7086 25.0943 41.7831 24.8263C41.8575 24.5583 41.8508 24.2743 41.7639 24.0101C41.6472 23.6558 41.3947 23.3624 41.0617 23.1944C40.7287 23.0263 40.3427 22.9975 39.9884 23.1141ZM39.0428 38.2303C38.7786 38.3173 38.5461 38.4806 38.3748 38.6997C38.2035 38.9188 38.1009 39.1838 38.0802 39.4611C38.0594 39.7385 38.1214 40.0158 38.2582 40.2579C38.3951 40.5001 38.6006 40.6962 38.8489 40.8215C39.0972 40.9468 39.3771 40.9957 39.6532 40.9619C39.9293 40.9281 40.1891 40.8133 40.3999 40.6318C40.6107 40.4504 40.763 40.2105 40.8374 39.9425C40.9119 39.6745 40.9052 39.3905 40.8182 39.1263C40.7016 38.7721 40.449 38.4786 40.1161 38.3106C39.7831 38.1426 39.397 38.1137 39.0428 38.2303ZM36.8441 31.5517C36.58 31.6386 36.3475 31.802 36.1761 32.0211C36.0048 32.2402 35.9023 32.5051 35.8815 32.7825C35.8608 33.0598 35.9227 33.3371 36.0596 33.5793C36.1964 33.8214 36.402 34.0175 36.6503 34.1428C36.8986 34.2681 37.1785 34.317 37.4546 34.2832C37.7306 34.2495 37.9905 34.1346 38.2013 33.9532C38.4121 33.7717 38.5643 33.5318 38.6388 33.2639C38.7132 32.9959 38.7066 32.7118 38.6196 32.4477C38.503 32.0934 38.2504 31.8 37.9174 31.632C37.5845 31.4639 37.1984 31.435 36.8441 31.5517ZM34.6455 24.873C34.3813 24.96 34.1488 25.1233 33.9775 25.3424C33.8062 25.5615 33.7036 25.8265 33.6829 26.1038C33.6621 26.3812 33.7241 26.6585 33.8609 26.9006C33.9978 27.1427 34.2033 27.3389 34.4516 27.4642C34.7 27.5895 34.9798 27.6383 35.2559 27.6046C35.532 27.5708 35.7918 27.456 36.0026 27.2745C36.2134 27.0931 36.3657 26.8532 36.4401 26.5852C36.5146 26.3172 36.5079 26.0332 36.4209 25.769C36.3043 25.4148 36.0518 25.1213 35.7188 24.9533C35.3858 24.7853 34.9997 24.7564 34.6455 24.873Z"
      fill="currentColor" />
  </g>
  <defs>
    <clipPath id="clip0_1224_142">
      <rect width="45" height="45" fill="transparent" transform="translate(0 14.0714) rotate(-18.2218)" />
    </clipPath>
  </defs>
</svg>