<svg height="800px" width="800px" version="1.1" id="Layer_1" xmlns="http://www.w3.org/2000/svg"
 xmlns:xlink="http://www.w3.org/1999/xlink" viewBox="0 0 511.998 511.998" xml:space="preserve" fill="#000000">

 <g id="SVGRepo_bgCarrier" stroke-width="0" />

 <g id="SVGRepo_tracerCarrier" stroke-linecap="round" stroke-linejoin="round" />

 <g id="SVGRepo_iconCarrier">
  <path style="fill:#84BD5A;"
   d="M487.863,298.718c-5.656-7.096-4.608-17.688,2.32-23.544l0.616-0.528 c6.928-5.856,6.928-15.44,0-21.296l-0.616-0.528c-6.928-5.856-7.976-16.456-2.32-23.544l0.504-0.64 c5.656-7.096,3.792-16.488-4.16-20.88l-0.712-0.4c-7.936-4.392-11.032-14.576-6.864-22.64l0.376-0.736 c4.168-8.064,0.496-16.912-8.16-19.672l-0.768-0.248c-8.648-2.76-13.68-12.16-11.168-20.872l0.216-0.784 c2.504-8.712-2.832-16.68-11.832-17.704l-0.8-0.096c-9.016-1.016-15.768-9.248-15.024-18.288l0.072-0.824 c0.76-9.032-6.016-15.816-15.064-15.064l-0.8,0.072c-9.048,0.76-17.264-5.992-18.296-15.008l-0.104-0.816 c-1.024-9.016-8.992-14.344-17.704-11.832l-0.784,0.216c-8.72,2.504-18.12-2.504-20.88-11.152l-0.232-0.784 c-2.76-8.632-11.624-12.304-19.68-8.152l-0.72,0.384c-8.056,4.16-18.248,1.064-22.632-6.872l-0.408-0.712 c-4.384-7.936-13.784-9.816-20.864-4.16l-0.64,0.504c-7.096,5.648-17.696,4.608-23.552-2.32l-0.52-0.624 c-5.864-6.928-15.448-6.928-21.312,0l-0.52,0.624c-5.856,6.928-16.464,7.968-23.552,2.32l-0.632-0.504 c-7.096-5.656-16.496-3.784-20.872,4.16l-0.408,0.712c-4.384,7.936-14.576,11.032-22.632,6.872l-0.744-0.376 c-8.056-4.16-16.92-0.488-19.68,8.152l-0.232,0.784c-2.768,8.64-12.168,13.656-20.88,11.152l-0.792-0.224 c-8.712-2.504-16.688,2.824-17.704,11.832l-0.096,0.816c-1.032,9.016-9.248,15.768-18.296,15.008l-0.8-0.072 c-9.048-0.752-15.824,6.032-15.064,15.064l0.072,0.824c0.744,9.04-6.008,17.272-15.024,18.288l-0.8,0.096 c-9.008,1.024-14.344,8.992-11.832,17.704l0.216,0.784c2.512,8.72-2.512,18.12-11.16,20.872l-0.776,0.248 c-8.64,2.76-12.32,11.608-8.16,19.672l0.376,0.736c4.168,8.064,1.072,18.248-6.864,22.64l-0.712,0.4 c-7.944,4.4-9.816,13.792-4.16,20.88l0.504,0.64c5.656,7.096,4.608,17.688-2.32,23.544l-0.616,0.528 c-6.928,5.856-6.928,15.44,0,21.296l0.616,0.528c6.928,5.856,7.976,16.456,2.32,23.544l-0.504,0.64 c-5.656,7.096-3.792,16.488,4.16,20.88l0.712,0.4c7.936,4.392,11.032,14.584,6.864,22.648l-0.376,0.728 c-4.168,8.064-0.488,16.912,8.16,19.672l0.776,0.248c8.64,2.752,13.672,12.16,11.16,20.864l-0.216,0.792 c-2.504,8.712,2.832,16.68,11.832,17.704l0.8,0.096c9.016,1.016,15.768,9.248,15.024,18.288l-0.072,0.824 c-0.76,9.032,6.016,15.816,15.064,15.064l0.8-0.072c9.048-0.76,17.264,5.992,18.296,15.008l0.096,0.816 c1.016,9.016,8.992,14.344,17.704,11.832l0.792-0.216c8.72-2.512,18.12,2.504,20.88,11.152l0.232,0.784 c2.76,8.64,11.624,12.304,19.68,8.152l0.744-0.376c8.056-4.16,18.248-1.064,22.632,6.872l0.408,0.712 c4.384,7.936,13.784,9.816,20.872,4.16l0.632-0.504c7.096-5.648,17.696-4.608,23.552,2.32l0.52,0.624 c5.864,6.928,15.448,6.928,21.312,0l0.52-0.624c5.856-6.928,16.464-7.968,23.552-2.32l0.64,0.504 c7.088,5.656,16.488,3.784,20.864-4.16l0.408-0.712c4.384-7.936,14.576-11.032,22.632-6.872l0.744,0.376 c8.056,4.16,16.92,0.496,19.68-8.152l0.232-0.784c2.768-8.64,12.168-13.664,20.88-11.152l0.784,0.216 c8.712,2.512,16.68-2.816,17.704-11.832l0.104-0.816c1.032-9.016,9.248-15.768,18.296-15.008l0.8,0.072 c9.048,0.752,15.824-6.032,15.064-15.064l-0.072-0.824c-0.744-9.04,6.008-17.272,15.024-18.288l0.8-0.096 c9.008-1.024,14.344-8.992,11.832-17.704l-0.216-0.792c-2.512-8.712,2.512-18.12,11.168-20.864l0.768-0.248 c8.648-2.76,12.32-11.608,8.16-19.672l-0.376-0.728c-4.168-8.064-1.072-18.256,6.864-22.648l0.712-0.4 c7.944-4.4,9.816-13.792,4.16-20.88L487.863,298.718z M412.535,271.094l-0.416,0.352c-4.616,3.904-5.32,10.968-1.544,15.696 l0.336,0.424c3.776,4.736,2.528,11-2.768,13.928l-0.48,0.264c-5.288,2.928-7.352,9.728-4.576,15.104l0.248,0.488 c2.776,5.376,0.328,11.272-5.44,13.112l-0.504,0.168c-5.768,1.832-9.128,8.096-7.448,13.904l0.152,0.528 c1.672,5.808-1.888,11.12-7.888,11.8l-0.528,0.064c-6.016,0.68-10.512,6.168-10.016,12.192l0.048,0.536 c0.496,6.032-4.016,10.544-10.048,10.048l-0.528-0.048c-6.032-0.496-11.504,4-12.192,10.016l-0.072,0.528 c-0.68,6.016-5.992,9.56-11.8,7.888l-0.52-0.16c-5.816-1.672-12.08,1.68-13.92,7.44l-0.16,0.52c-1.832,5.76-7.752,8.208-13.12,5.44 l-0.496-0.256c-5.368-2.768-12.168-0.704-15.088,4.584l-0.272,0.48c-2.92,5.288-9.184,6.536-13.904,2.768l-0.432-0.328 c-4.728-3.776-11.8-3.08-15.704,1.536l-0.352,0.416c-3.904,4.624-10.296,4.624-14.2,0l-0.352-0.416 c-3.904-4.616-10.976-5.312-15.704-1.536l-0.424,0.328c-4.728,3.776-10.992,2.52-13.912-2.768l-0.272-0.48 c-2.92-5.288-9.72-7.352-15.088-4.584l-0.496,0.256c-5.368,2.776-11.28,0.32-13.12-5.44l-0.16-0.52 c-1.84-5.76-8.112-9.112-13.92-7.44l-0.52,0.16c-5.816,1.672-11.128-1.872-11.808-7.888l-0.064-0.528 c-0.688-6.016-6.168-10.512-12.192-10.016l-0.528,0.048c-6.032,0.496-10.544-4.016-10.048-10.048l0.048-0.536 c0.496-6.024-4-11.512-10.016-12.192l-0.528-0.064c-6-0.68-9.56-5.992-7.888-11.8l0.152-0.528c1.68-5.816-1.68-12.08-7.44-13.904 l-0.512-0.168c-5.76-1.832-8.208-7.736-5.44-13.112l0.248-0.488c2.776-5.376,0.712-12.168-4.576-15.104l-0.48-0.264 c-5.296-2.928-6.536-9.192-2.768-13.928l0.336-0.424c3.776-4.728,3.072-11.792-1.544-15.696l-0.416-0.352 c-4.616-3.904-4.616-10.296,0-14.2l0.416-0.352c4.616-3.904,5.32-10.968,1.544-15.696l-0.336-0.424 c-3.776-4.736-2.528-11,2.768-13.928l0.48-0.256c5.288-2.936,7.352-9.736,4.576-15.104l-0.248-0.496 c-2.776-5.376-0.32-11.272,5.44-13.112l0.512-0.168c5.76-1.832,9.12-8.104,7.44-13.912l-0.152-0.52 c-1.672-5.808,1.888-11.12,7.888-11.8l0.528-0.064c6.016-0.68,10.512-6.168,10.016-12.192l-0.048-0.536 c-0.496-6.032,4.016-10.544,10.048-10.048l0.528,0.048c6.032,0.496,11.504-4,12.192-10.016l0.064-0.528 c0.68-6.016,5.992-9.56,11.808-7.888l0.52,0.16c5.816,1.664,12.08-1.68,13.92-7.44l0.16-0.52c1.832-5.76,7.752-8.208,13.12-5.432 l0.496,0.248c5.368,2.768,12.168,0.704,15.088-4.584l0.272-0.48c2.92-5.288,9.184-6.536,13.912-2.768l0.424,0.328 c4.728,3.776,11.8,3.08,15.704-1.536l0.352-0.416c3.904-4.624,10.296-4.624,14.2,0l0.352,0.416 c3.904,4.616,10.976,5.312,15.704,1.536l0.432-0.328c4.72-3.776,10.984-2.52,13.904,2.768l0.272,0.48 c2.92,5.288,9.72,7.352,15.088,4.584l0.496-0.248c5.368-2.784,11.28-0.328,13.12,5.432l0.16,0.52c1.84,5.76,8.112,9.104,13.92,7.432 l0.52-0.152c5.808-1.672,11.12,1.872,11.8,7.888l0.072,0.528c0.688,6.016,6.168,10.512,12.192,10.016l0.528-0.048 c6.032-0.496,10.544,4.016,10.048,10.048l-0.048,0.536c-0.496,6.024,4,11.512,10.016,12.192l0.528,0.064 c6,0.68,9.56,5.992,7.888,11.8l-0.152,0.52c-1.68,5.816,1.68,12.08,7.448,13.912l0.504,0.168c5.768,1.832,8.208,7.736,5.44,13.112 l-0.248,0.496c-2.776,5.368-0.712,12.168,4.576,15.104l0.48,0.256c5.296,2.928,6.536,9.192,2.768,13.928l-0.336,0.424 c-3.776,4.728-3.072,11.792,1.544,15.696l0.416,0.352C417.159,260.798,417.159,267.182,412.535,271.094z" />
  <path style="fill:#73AE44;"
   d="M255.999,71.998c-106.032,0-192,85.96-192,192s85.968,192,192,192s192-85.96,192-192 S362.031,71.998,255.999,71.998z M403.343,210.638l-0.248,0.496c-2.776,5.368-0.712,12.168,4.576,15.104l0.48,0.256 c5.296,2.928,6.536,9.192,2.768,13.928l-0.336,0.424c-3.776,4.728-3.072,11.792,1.544,15.696l0.416,0.352 c4.616,3.904,4.616,10.296,0,14.2l-0.416,0.352c-4.616,3.904-5.32,10.968-1.544,15.696l0.336,0.424 c3.776,4.736,2.528,11-2.768,13.928l-0.48,0.264c-5.288,2.928-7.352,9.728-4.576,15.104l0.248,0.488 c2.776,5.376,0.328,11.272-5.44,13.112l-0.504,0.168c-5.768,1.832-9.128,8.096-7.448,13.904l0.152,0.528 c1.672,5.808-1.888,11.12-7.888,11.8l-0.528,0.064c-6.016,0.68-10.512,6.168-10.016,12.192l0.048,0.536 c0.496,6.032-4.016,10.544-10.048,10.048l-0.528-0.048c-6.032-0.496-11.504,4-12.192,10.016l-0.072,0.528 c-0.68,6.016-5.992,9.56-11.8,7.888l-0.52-0.16c-5.816-1.672-12.08,1.68-13.92,7.44l-0.16,0.52c-1.832,5.76-7.752,8.208-13.12,5.44 l-0.496-0.256c-5.368-2.768-12.168-0.704-15.088,4.584l-0.272,0.48c-2.92,5.288-9.184,6.536-13.904,2.768l-0.432-0.328 c-4.728-3.776-11.8-3.08-15.704,1.536l-0.352,0.416c-3.904,4.624-10.296,4.624-14.2,0l-0.352-0.416 c-3.904-4.616-10.976-5.312-15.704-1.536l-0.424,0.328c-4.728,3.776-10.992,2.52-13.912-2.768l-0.272-0.48 c-2.92-5.288-9.72-7.352-15.088-4.584l-0.496,0.256c-5.368,2.776-11.28,0.32-13.12-5.44l-0.16-0.52 c-1.84-5.76-8.112-9.112-13.92-7.44l-0.52,0.16c-5.816,1.672-11.128-1.872-11.808-7.888l-0.064-0.528 c-0.688-6.016-6.168-10.512-12.192-10.016l-0.528,0.048c-6.032,0.496-10.544-4.016-10.048-10.048l0.048-0.536 c0.496-6.024-4-11.512-10.016-12.192l-0.528-0.064c-6-0.68-9.56-5.992-7.888-11.8l0.152-0.528c1.68-5.816-1.68-12.08-7.44-13.904 l-0.512-0.168c-5.76-1.832-8.208-7.736-5.44-13.112l0.248-0.488c2.776-5.376,0.712-12.168-4.576-15.104l-0.48-0.264 c-5.296-2.928-6.536-9.192-2.768-13.928l0.336-0.424c3.776-4.728,3.072-11.792-1.544-15.696l-0.416-0.352 c-4.616-3.904-4.616-10.296,0-14.2l0.416-0.352c4.616-3.904,5.32-10.968,1.544-15.696l-0.336-0.424 c-3.776-4.736-2.528-11,2.768-13.928l0.48-0.256c5.288-2.936,7.352-9.736,4.576-15.104l-0.248-0.496 c-2.776-5.376-0.32-11.272,5.44-13.112l0.512-0.168c5.76-1.832,9.12-8.104,7.44-13.912l-0.152-0.52 c-1.672-5.808,1.888-11.12,7.888-11.8l0.528-0.064c6.016-0.68,10.512-6.168,10.016-12.192l-0.048-0.536 c-0.496-6.032,4.016-10.544,10.048-10.048l0.528,0.048c6.032,0.496,11.504-4,12.192-10.016l0.064-0.528 c0.68-6.016,5.992-9.56,11.808-7.888l0.52,0.16c5.816,1.664,12.08-1.68,13.92-7.44l0.16-0.52c1.832-5.76,7.752-8.208,13.12-5.432 l0.496,0.248c5.368,2.768,12.168,0.704,15.088-4.584l0.272-0.48c2.92-5.288,9.184-6.536,13.912-2.768l0.424,0.328 c4.728,3.776,11.8,3.08,15.704-1.536l0.352-0.416c3.904-4.624,10.296-4.624,14.2,0l0.352,0.416 c3.904,4.616,10.976,5.312,15.704,1.536l0.432-0.328c4.72-3.776,10.984-2.52,13.904,2.768l0.272,0.48 c2.92,5.288,9.72,7.352,15.088,4.584l0.496-0.248c5.368-2.784,11.28-0.328,13.12,5.432l0.16,0.52c1.84,5.76,8.112,9.104,13.92,7.432 l0.52-0.152c5.808-1.672,11.12,1.872,11.8,7.888l0.072,0.528c0.688,6.016,6.168,10.512,12.192,10.016l0.528-0.048 c6.032-0.496,10.544,4.016,10.048,10.048l-0.048,0.536c-0.496,6.024,4,11.512,10.016,12.192l0.528,0.064 c6,0.68,9.56,5.992,7.888,11.8l-0.152,0.52c-1.68,5.816,1.68,12.08,7.448,13.912l0.504,0.168 C403.671,199.366,406.119,205.262,403.343,210.638z" />
  <g>
   <path style="fill:#E4513F;"
    d="M279.999,503.998c0,4.4-3.6,8-8,8h-32c-4.4,0-8-3.6-8-8v-96c0-4.4,3.6-8,8-8h32c4.4,0,8,3.6,8,8 V503.998z" />
   <path style="fill:#E4513F;"
    d="M399.999,287.998c-4.4,0-8-3.6-8-8v-32c0-4.4,3.6-8,8-8h96c4.4,0,8,3.6,8,8v32c0,4.4-3.6,8-8,8 H399.999z" />
   <path style="fill:#E4513F;"
    d="M15.999,287.998c-4.4,0-8-3.6-8-8v-32c0-4.4,3.6-8,8-8h96c4.4,0,8,3.6,8,8v32c0,4.4-3.6,8-8,8 H15.999z" />
   <path style="fill:#E4513F;"
    d="M94.159,445.542c-3.272,3.264-8.632,3.264-11.896,0l-23.808-23.8c-3.272-3.272-3.272-8.624,0-11.896 l71.392-71.4c3.272-3.264,8.632-3.264,11.896,0l23.808,23.808c3.272,3.272,3.272,8.624,0,11.896L94.159,445.542z" />
   <path style="fill:#E4513F;"
    d="M417.839,445.542c3.272,3.264,8.632,3.264,11.896,0l23.808-23.8c3.272-3.272,3.272-8.624,0-11.896 l-71.392-71.4c-3.272-3.264-8.632-3.264-11.896,0l-23.808,23.808c-3.272,3.272-3.272,8.624,0,11.896L417.839,445.542z" />
   <path style="fill:#E4513F;"
    d="M94.159,74.454c-3.264-3.264-8.624-3.264-11.888,0l-23.816,23.8c-3.264,3.272-3.264,8.624,0,11.896 l71.392,71.4c3.28,3.264,8.64,3.264,11.904,0l23.8-23.808c3.28-3.272,3.28-8.624,0-11.896L94.159,74.454z" />
   <path style="fill:#E4513F;"
    d="M417.839,74.454c3.28-3.264,8.64-3.264,11.904,0l23.8,23.8c3.28,3.272,3.28,8.624,0,11.896 l-71.392,71.4c-3.264,3.264-8.624,3.264-11.888,0l-23.816-23.808c-3.264-3.272-3.264-8.624,0-11.896L417.839,74.454z" />
  </g>
  <g>
   <path style="fill:#BC3E34;"
    d="M415.999,129.758v-49.76v-3.704l-59.872,59.872l30.112,13.704 C402.607,156.406,415.999,147.358,415.999,129.758z" />
   <path style="fill:#BC3E34;"
    d="M95.999,129.758v-49.76v-3.704l59.872,59.872l-30.112,13.704 C109.391,156.406,95.999,147.358,95.999,129.758z" />
  </g>
  <g>
   <path style="fill:#F15642;"
    d="M386.231,2.126L285.455,47.998c-15.304,6.112-27.848,13.36-29.456,24 c1.608,10.64,14.152,17.888,29.456,24l100.784,45.872c16.368,6.536,29.76-2.512,29.76-20.112v-49.76v-49.76 C415.999,4.638,402.607-4.41,386.231,2.126z" />
   <path style="fill:#F15642;"
    d="M125.767,2.126l100.776,45.872c15.304,6.112,27.84,13.36,29.456,24 c-1.608,10.64-14.152,17.888-29.456,24L125.759,141.87c-16.368,6.536-29.76-2.512-29.76-20.112v-49.76v-49.76 C95.999,4.638,109.391-4.41,125.767,2.126z" />
  </g>
  <g>
   <path style="fill:#E4513F;"
    d="M125.767,2.126l100.776,45.872c15.304,6.112,27.84,13.36,29.456,24h-160v-49.76 C95.999,4.638,109.391-4.41,125.767,2.126z" />
   <path style="fill:#E4513F;"
    d="M386.231,2.126L285.455,47.998c-15.304,6.112-27.848,13.36-29.456,24h160v-49.76 C415.999,4.638,402.607-4.41,386.231,2.126z" />
  </g>
  <g>
   <path style="fill:#BC3E34;"
    d="M226.543,47.998L202.431,37.03c-6.576,10.048-10.432,22.048-10.432,34.968s3.856,24.92,10.44,34.968 l24.104-10.968c15.304-6.112,27.84-13.36,29.456-24C254.391,61.358,241.847,54.11,226.543,47.998z" />
   <path style="fill:#BC3E34;"
    d="M255.999,71.998c1.608,10.64,14.152,17.888,29.456,24l24.112,10.968 c6.576-10.048,10.432-22.048,10.432-34.968s-3.856-24.92-10.44-34.968l-24.104,10.968C270.151,54.11,257.607,61.358,255.999,71.998 z" />
  </g>
  <circle style="fill:#F15642;" cx="255.999" cy="71.998" r="56" />
  <path style="fill:#E4513F;"
   d="M286.767,25.23c5.816,8.832,9.232,19.392,9.232,30.768c0,30.936-25.08,56-56,56 c-11.368,0-21.928-3.408-30.768-9.232c10.016,15.192,27.216,25.232,46.768,25.232c30.92,0,56-25.064,56-56 C311.999,52.438,301.959,35.246,286.767,25.23z" />
  <circle style="fill:#84BD5A;" cx="303.999" cy="431.998" r="8" />
  <g>
   <circle style="fill:#90C660;" cx="351.999" cy="447.998" r="8" />
   <circle style="fill:#90C660;" cx="303.999" cy="471.998" r="8" />
   <circle style="fill:#90C660;" cx="447.999" cy="343.998" r="8" />
   <circle style="fill:#90C660;" cx="463.999" cy="215.998" r="8" />
   <circle style="fill:#90C660;" cx="439.999" cy="167.998" r="8" />
   <circle style="fill:#90C660;" cx="79.999" cy="159.998" r="8" />
   <circle style="fill:#90C660;" cx="47.999" cy="207.998" r="8" />
   <circle style="fill:#90C660;" cx="47.999" cy="311.998" r="8" />
   <circle style="fill:#90C660;" cx="63.999" cy="351.998" r="8" />
   <circle style="fill:#90C660;" cx="135.999" cy="439.998" r="8" />
   <circle style="fill:#90C660;" cx="175.999" cy="455.998" r="8" />
  </g>
  <g>
   <circle style="fill:#84BD5A;" cx="191.999" cy="423.998" r="8" />
   <circle style="fill:#84BD5A;" cx="87.999" cy="327.998" r="8" />
   <circle style="fill:#84BD5A;" cx="79.999" cy="223.998" r="8" />
   <circle style="fill:#84BD5A;" cx="103.999" cy="183.998" r="8" />
   <circle style="fill:#84BD5A;" cx="415.999" cy="175.998" r="8" />
   <circle style="fill:#84BD5A;" cx="423.999" cy="215.998" r="8" />
   <circle style="fill:#84BD5A;" cx="423.999" cy="319.998" r="8" />
  </g>
 </g>

</svg>