<svg height="200px" width="200px" version="1.1" id="Layer_1" xmlns="http://www.w3.org/2000/svg"
  xmlns:xlink="http://www.w3.org/1999/xlink" viewBox="0 0 511.988 511.988" xml:space="preserve" fill="#000000">
  <g id="SVGRepo_bgCarrier" stroke-width="0"></g>
  <g id="SVGRepo_tracerCarrier" stroke-linecap="round" stroke-linejoin="round"></g>
  <g id="SVGRepo_iconCarrier">
    <path style="fill:#ee2f43;"
      d="M21.265,368.488l333.836-11.921c24.484-50.687-0.578-92.506-0.578-92.506 c64.78-18.258,99.232,54.428,109.686,64.881c2.062,2.094,12.438-9.953,12.438-9.953C450.099-100.806-104.357,45.769,21.265,368.488z ">
    </path>
    <g>
      <path style="fill:#E6E9ED;"
        d="M511.988,323.427c0,23.562-19.093,42.671-42.654,42.671c-23.578,0-42.688-19.108-42.688-42.671 c0-23.562,19.109-42.67,42.688-42.67C492.895,280.757,511.988,299.865,511.988,323.427z">
      </path>
      <path style="fill:#E6E9ED;"
        d="M383.992,368.019c0-12.843-10.406-23.249-23.234-23.249H23.242C10.406,344.77,0,355.176,0,368.019 v60.187c0,12.828,10.406,23.233,23.242,23.233h337.516c12.828,0,23.234-10.405,23.234-23.233V368.019z">
      </path>
    </g>
    <g>
      <path style="fill:#CCD1D9;"
        d="M319.993,415.878c-5.875,0-10.655,4.781-10.655,10.672v24.89h21.327v-24.89 C330.665,420.659,325.899,415.878,319.993,415.878z">
      </path>
      <path style="fill:#CCD1D9;"
        d="M234.667,415.878c-5.891,0-10.663,4.781-10.663,10.672v24.89h21.327v-24.89 C245.331,420.659,240.557,415.878,234.667,415.878z">
      </path>
      <path style="fill:#CCD1D9;"
        d="M149.333,415.878c-5.891,0-10.664,4.781-10.664,10.672v24.89h21.328v-24.89 C159.997,420.659,155.223,415.878,149.333,415.878z">
      </path>
      <path style="fill:#CCD1D9;"
        d="M63.999,415.878c-5.891,0-10.664,4.781-10.664,10.672v24.89h21.336v-24.89 C74.671,420.659,69.89,415.878,63.999,415.878z">
      </path>
    </g>
  </g>
</svg>