<svg xmlns="http://www.w3.org/2000/svg" width="20px" height="20px" viewBox="0 0 24 24">
  <path fill="currentColor" fill-rule="evenodd"
    d="M1 3a1 1 0 0 1 1-1h11a1 1 0 0 1 1 1v5h4a5 5 0 0 1 5 5v4a3 3 0 0 1-2.129 2.872a3 3 0 0 1-5.7.128H8.83a3 3 0 0 1-5.7-.128A3 3 0 0 1 1 17v-4h6a1 1 0 1 0 0-2H1V9h4a1 1 0 0 0 0-2H1zm13 15h1.171a3 3 0 0 1 5.536-.293A1 1 0 0 0 21 17v-4a3 3 0 0 0-3-3h-4zm-7 1a1 1 0 1 0-2 0a1 1 0 0 0 2 0m10.293-.707A1 1 0 0 0 17 19a1 1 0 1 0 .293-.707"
    clip-rule="evenodd" stroke-width="0.5" stroke="currentColor" />
</svg>