<svg width="20" height="20" viewBox="0 0 20 20" fill="none" xmlns="http://www.w3.org/2000/svg">
 <path
  d="M9.86916 7.33777C10.0573 7.41172 10.2419 7.23073 10.1795 7.03816C9.75147 5.71628 8.20161 5.22316 6.76085 6.39593C6.00299 7.0129 5.7182 7.14399 5.71102 7.1473C6.21063 7.64788 6.78142 9.32768 8.02707 9.51345C9.39926 9.76276 10.6137 8.40989 9.62011 7.79083C8.96666 7.38373 8.19729 7.14725 7.37259 7.14725C8.23717 6.95196 9.10028 7.0357 9.86916 7.33777Z"
  fill="currentColor" />
 <path
  d="M16.0827 6.39583C13.5957 4.3714 12.0096 7.56395 12.9955 7.24748C13.6957 7.02272 14.4612 6.97376 15.229 7.14719C13.9281 7.14719 12.7288 7.74467 11.9292 8.71718C11.9949 7.18887 12.0942 6.23223 12.2094 5.52061C12.8739 5.49771 13.7597 4.95993 14.2461 4.0189C15.0847 2.515 14.6958 0.973002 14.5706 0C13.9154 0.639413 11.0531 -0.10981 9.9184 1.8387C9.41717 2.69943 9.56285 3.74683 10.0901 4.51331C10.257 4.75596 10.6561 4.63953 10.6675 4.34506C10.717 3.06409 11.3532 2.09628 12.5392 1.56024C12.007 2.25125 11.6576 3.02488 11.4771 3.82449C11.1965 5.0701 10.9034 5.88719 10.7958 9.85731C10.7849 10.2599 11.1103 10.5932 11.5122 10.5882C11.8032 10.5845 12.0524 10.3995 12.1643 10.1303C12.3345 9.72094 12.6115 9.29726 13.0622 8.90908C13.4905 9.38351 14.1423 9.63595 14.8167 9.51339C16.057 9.32842 16.6359 7.64496 17.1327 7.14715C17.1254 7.14393 16.8406 7.01284 16.0827 6.39583Z"
  fill="currentColor" />
 <path
  d="M19.7387 11.3426C18.9612 10.8139 18.115 11.1906 17.7264 11.4155L12.8496 14.9924L9.99416 14.993L9.28029 14.2776H11.9027C12.6914 14.2776 13.5747 13.7628 13.5747 12.8465C13.5747 11.8738 12.6914 11.4155 11.9027 11.4155H10.92C10.1899 11.4155 9.33682 11.4807 8.7353 11.158C8.1638 10.8666 7.50571 10.7008 6.80321 10.7008C5.62359 10.7008 4.56782 11.172 3.84436 11.9152L0 15.7077L4.28321 20L5.71095 17.8539H12.4577C13.1773 17.8539 13.8718 17.5894 14.4097 17.1105L19.7875 12.3231C20.0865 12.0569 20.0697 11.5676 19.7387 11.3426Z"
  fill="currentColor" />
</svg>