<svg width="27" height="30" viewBox="0 0 27 30" fill="none" xmlns="http://www.w3.org/2000/svg">
<g clip-path="url(#clip0_543_1531)">
<path d="M12.6086 15.6978L0.111328 2.53751C0.251672 2.03761 0.503873 1.57659 0.848655 1.18967C1.19344 0.802757 1.62167 0.500198 2.10062 0.305123C2.57956 0.110048 3.09655 0.0276203 3.61205 0.0641422C4.12755 0.100664 4.62791 0.255171 5.0749 0.515846L19.1367 8.56539L12.6086 15.6978Z" fill="#EA4335"/>
<path d="M25.2458 17.9348L19.165 21.4355L12.3203 15.3984L19.1929 8.58431L25.2274 12.0476C25.762 12.3289 26.2097 12.752 26.5221 13.2709C26.8346 13.7898 26.9997 14.3847 26.9997 14.9912C26.9997 15.5977 26.8346 16.1927 26.5221 16.7116C26.2097 17.2305 25.762 17.6535 25.2274 17.9349L25.2458 17.9348Z" fill="#FBBC04"/>
<path d="M0.111829 27.5103C0.0363343 27.2296 -0.00126823 26.9399 3.26283e-05 26.6492V3.39895C0.00077809 3.10827 0.0383458 2.81888 0.111829 2.53774L13.0376 15.361L0.111829 27.5103Z" fill="#4285F4"/>
<path d="M12.7018 15.024L19.1647 21.4356L5.12152 29.5226C4.59315 29.8336 3.99221 29.9984 3.37991 30C1.86042 30.003 0.524555 28.9893 0.111328 27.5195L12.7018 15.024Z" fill="#34A853"/>
</g>
<defs>
<clipPath id="clip0_543_1531">
<rect width="27" height="30" fill="white" transform="matrix(1 0 0 -1 0 30)"/>
</clipPath>
</defs>
</svg>
