<svg xmlns="http://www.w3.org/2000/svg" width="24" height="24" viewBox="0 0 48 48">
  <g fill="none" stroke="currentColor" stroke-linecap="round" stroke-linejoin="round" stroke-width="3">
    <path
      d="M3 27.564S9 25 14 25c3.527 0 7.4 1.418 9.994 2.587c1.99.896 3.135 1.462 3.59 3.597c.317 1.483-.748 3.955-2.26 4.077l-1.065.086m0 0c-2.442 0-6.222-.724-6.222-.724m6.222.724c3.387 0 12.303-1.609 15.463-2.2c.754-.14 1.535-.243 2.252.027c.902.341 2.112 1.164 2.69 3.15c.452 1.552-.633 3.045-2.14 3.628C38.104 41.662 28.887 45 24.259 45C12 45 3 41.923 3 41.923M36 9c0-2-1.02-6-4.588-6c-4.077 0-4.265 5-1.808 6M36 9c0-2 1.02-6 4.588-6c4.077 0 4.265 5 1.807 6" />
    <path
      d="M44.88 19.905c-.11 1.617-1.354 2.814-2.971 2.922A89 89 0 0 1 36 23a89 89 0 0 1-5.909-.173c-1.617-.108-2.86-1.305-2.971-2.922c-.068-.99-.12-2.28-.12-3.905s.052-2.915.12-3.905c.11-1.617 1.354-2.814 2.971-2.922A89 89 0 0 1 36 9c2.581 0 4.528.081 5.909.173c1.617.108 2.86 1.305 2.971 2.922c.068.99.12 2.28.12 3.905s-.052 2.915-.12 3.905M36 9.045v14" />
  </g>
</svg>