<svg width="57" height="57" viewBox="0 0 57 57" fill="none" xmlns="http://www.w3.org/2000/svg">
  <g clip-path="url(#clip0_1224_133)">
    <path
      d="M23.2158 42.2706C23.4493 42.3445 23.7055 42.368 23.9842 42.3408C24.2629 42.3137 24.5018 42.2484 24.7011 42.145L43.0501 32.6207C43.6416 32.3137 44.1337 31.9647 44.5263 31.5737C44.9184 31.18 45.2034 30.7025 45.3811 30.1412C45.5611 29.5728 45.6143 28.9826 45.5406 28.3705C45.4662 27.7569 45.2741 27.1585 44.9645 26.5753L40.384 17.7494C40.0841 17.1602 39.7338 16.6867 39.3331 16.329C38.9336 15.9718 38.4496 15.7031 37.8812 15.5231C37.3199 15.3454 36.7653 15.2851 36.2175 15.3424C35.6696 15.3997 35.112 15.585 34.5447 15.8984L32.4924 16.9635L34.7493 21.3265C34.9938 21.7881 35.1333 22.2689 35.1677 22.7689C35.201 23.2685 35.1451 23.7471 35.0002 24.2047C34.7055 25.1354 34.1572 25.8088 33.3555 26.2249C32.5537 26.641 31.6882 26.7013 30.7591 26.4058C30.3003 26.2605 29.8749 26.0491 29.4829 25.7715C29.0909 25.494 28.7756 25.1253 28.537 24.6656L26.1964 20.1758L16.0342 25.4483C15.7969 25.5724 15.5966 25.7351 15.4332 25.9365C15.2698 26.1378 15.1509 26.3558 15.0766 26.5906C14.943 27.0124 14.9682 27.4026 15.1523 27.7612C15.3349 28.1206 15.6371 28.367 16.0589 28.5006C16.2925 28.5746 16.5486 28.598 16.8273 28.5709C17.1064 28.5425 17.3455 28.4767 17.5448 28.3733L25.0033 24.5024L25.8681 26.1688L18.418 30.0442C18.1799 30.1668 17.9791 30.3287 17.8157 30.53C17.6531 30.7329 17.5348 30.9512 17.4609 31.1847C17.3345 31.5839 17.3673 31.9687 17.5595 32.339C17.7517 32.7093 18.0472 32.9582 18.446 33.0858C18.6796 33.1598 18.9359 33.1826 19.215 33.1543C19.4941 33.126 19.7331 33.0607 19.9319 32.9585L27.9307 28.8162L28.796 30.4808L20.8028 34.6366C20.5964 34.7377 20.4037 34.895 20.2247 35.1084C20.0445 35.3215 19.9174 35.5448 19.8434 35.7783C19.7174 36.1763 19.751 36.5607 19.9444 36.9314C20.1358 37.304 20.4311 37.5536 20.8303 37.68C21.0639 37.754 21.3106 37.7823 21.5705 37.7649C21.8304 37.7476 22.0783 37.6766 22.3145 37.5521L30.3137 33.408L31.1785 35.0744L23.1764 39.2273C22.9391 39.3515 22.735 39.5261 22.564 39.7513C22.3931 39.9764 22.2744 40.1939 22.208 40.4036C22.0744 40.8255 22.115 41.2127 22.3299 41.5652C22.5447 41.9178 22.8398 42.1535 23.2152 42.2724M22.6384 44.0565C21.7196 43.7655 21.0396 43.1804 20.5982 42.3011C20.1571 41.4207 20.133 40.4991 20.5257 39.5365C19.509 39.2277 18.7615 38.6586 18.2833 37.8293C17.8055 36.9988 17.758 36.0371 18.1408 34.9441C17.0335 34.6066 16.2636 34.0153 15.831 33.1703C15.3984 32.3253 15.3772 31.3863 15.7672 30.3534C14.7696 30.0506 14.0265 29.5071 13.5379 28.723C13.0497 27.9417 12.9668 27.0422 13.2891 26.0245C13.4344 25.5657 13.6684 25.135 13.9913 24.7325C14.3145 24.3287 14.7046 24.0078 15.1616 23.7696L27.0013 17.6339L30.1551 23.7108C30.2563 23.9172 30.402 24.107 30.5924 24.28C30.7828 24.4531 31.0176 24.5832 31.2969 24.6703C31.6794 24.7914 32.0595 24.7649 32.4372 24.5908C32.8149 24.4167 33.0722 24.1153 33.2093 23.6867C33.2976 23.4079 33.3256 23.1414 33.2933 22.8873C33.2614 22.632 33.1907 22.4038 33.0814 22.2026L28.8795 14.1063C28.5785 13.5167 28.2222 13.0413 27.8108 12.6803C27.3993 12.3192 26.9094 12.0487 26.341 11.8687C25.7797 11.6909 25.2364 11.6343 24.7112 11.6988C24.1872 11.7636 23.6294 11.9495 23.0379 12.2565L15.8703 15.9853C15.3658 16.2452 14.9116 16.6029 14.5077 17.0585C14.1042 17.5128 13.8061 18.0196 13.6133 18.5787C13.4734 18.9789 13.3852 19.3778 13.3485 19.7752C13.3117 20.1727 13.3319 20.5646 13.4089 20.9508L11.6249 21.8767C11.4763 21.3025 11.4162 20.6765 11.4447 19.9984C11.4733 19.3204 11.5971 18.6581 11.8163 18.0116C12.0879 17.2034 12.4968 16.4774 13.0429 15.8335C13.5891 15.1895 14.2444 14.6687 15.0089 14.2709L22.1284 10.576C22.9471 10.1561 23.752 9.90616 24.5431 9.82624C25.3337 9.74751 26.1336 9.83626 26.9428 10.0925C27.7519 10.3487 28.4504 10.7351 29.0381 11.2516C29.6274 11.7674 30.133 12.4316 30.5548 13.2444L31.6169 15.2938L33.6686 14.2304C34.4873 13.8105 35.2863 13.5587 36.0654 13.475C36.8441 13.3925 37.6381 13.4794 38.4472 13.7356C39.2564 13.9918 39.9614 14.3803 40.5622 14.901C41.1622 15.4201 41.6726 16.0858 42.0932 16.8982L46.6449 25.6658C47.0659 26.477 47.3224 27.3194 47.4142 28.1928C47.506 29.0663 47.4232 29.9074 47.1658 30.7162C46.9092 31.5266 46.5059 32.2203 45.956 32.7975C45.4061 33.3746 44.7246 33.8747 43.9115 34.2977L25.5647 43.809C25.0763 44.0634 24.5867 44.206 24.0958 44.2367C23.606 44.2678 23.1204 44.2072 22.639 44.0547"
      fill="currentColor" />
  </g>
  <defs>
    <clipPath id="clip0_1224_133">
      <rect width="45" height="45" fill="transparent" transform="translate(13.5859) rotate(17.5714)" />
    </clipPath>
  </defs>
</svg>