<svg width="1800" height="700" viewBox="0 0 1800 700" fill="none" xmlns="http://www.w3.org/2000/svg">
  <g clip-path="url(#clip0_1877_1929)">
    <path
      d="M0.0825619 31.4766C0.0369647 14.9077 13.432 1.4392 30.0008 1.39412L542.475 0C551.683 0 559.149 9.46234 559.149 21.1347V32.8876C559.149 44.56 566.614 54.0223 575.824 54.0223H1224.18C1233.39 54.0223 1240.85 44.56 1240.85 32.8876V21.1347C1240.85 9.46232 1248.32 0 1257.52 0L1770.05 0.933469C1786.6 0.963606 1800 14.3862 1800 30.9334V640.253C1800 649.943 1800 632.216 1800 668.916C1800 685.485 1786.57 698.973 1770 698.973H1605.06H1224.7H898.957L410.349 700H31.8399C15.3035 700 1.8855 686.619 1.84 670.083L0.0825619 31.4766Z"
      fill="#007FDE" />
  </g>
  <defs>
    <clipPath id="clip0_1877_1929">
      <rect width="1800" height="700" fill="white" />
    </clipPath>
  </defs>
</svg>