<svg width="58" height="58" viewBox="0 0 58 58" fill="none" xmlns="http://www.w3.org/2000/svg">
  <g clip-path="url(#clip0_1224_140)">
    <path
      d="M52.6538 22.4293C52.7019 22.2641 52.6879 22.0871 52.6143 21.9316C52.5407 21.7761 52.4126 21.653 52.2544 21.5856C44.1189 18.1051 36.5729 18.2167 32.073 21.8663C29.0058 24.3549 27.7355 28.1385 28.465 32.5632C26.4447 33.6348 24.7782 35.2688 23.6669 37.2675L21.1755 31.9862C23.5535 29.8515 24.553 27.1605 23.988 24.3692C23.1511 20.2383 18.9875 16.6969 12.8471 14.8906C12.6826 14.8431 12.5065 14.8571 12.3517 14.9301C12.1969 15.0032 12.0741 15.1302 12.0062 15.2873C9.49633 21.1715 9.58151 26.6368 12.2372 29.9096C13.0862 30.9693 14.2122 31.7729 15.4902 32.2315C16.9094 32.7137 18.4265 32.8346 19.9041 32.5832L22.8943 38.9306L21.0932 43.9486C21.0302 44.1241 21.0395 44.3175 21.119 44.4861C21.1986 44.6548 21.3419 44.7849 21.5174 44.8479C21.6929 44.9109 21.8863 44.9016 22.055 44.8221C22.2236 44.7425 22.3538 44.5992 22.4168 44.4237L24.168 39.5447C25.0388 37.0992 26.7869 35.0643 29.0731 33.8348C30.5964 35.5694 32.3222 36.7865 34.1703 37.4499C35.911 38.0751 37.7909 38.2062 39.6016 37.8287C45.2788 36.6747 50.1588 30.9204 52.6538 22.4293ZM13.329 29.0222C11.0917 26.2694 11.0018 21.5923 13.0577 16.4267C18.3522 18.1235 21.9039 21.1689 22.6188 24.6509C23.0548 26.8076 22.3212 28.9087 20.5517 30.6491L17.502 24.2019C17.4171 24.0427 17.2741 23.9222 17.1028 23.8654C16.9315 23.8086 16.7449 23.8199 16.5816 23.8969C16.4184 23.9739 16.291 24.1107 16.2259 24.2791C16.1608 24.4474 16.1628 24.6343 16.2317 24.8012L19.2725 31.2471C16.8023 31.5053 14.7143 30.7353 13.329 29.0222ZM39.3224 36.4473C36.0898 37.1023 32.9474 35.9501 30.3899 33.1944L43.3678 27.0709C43.5317 26.9886 43.6569 26.8456 43.7168 26.6722C43.7767 26.4989 43.7665 26.3091 43.6884 26.1432C43.6103 25.9773 43.4705 25.8484 43.2988 25.7841C43.1271 25.7198 42.937 25.7251 42.7692 25.799L29.7896 31.9219C29.29 28.194 30.3918 25.041 32.9598 22.9597C36.9444 19.7208 43.6989 19.6184 51.1228 22.6361C48.7321 30.285 44.3493 35.4297 39.3224 36.4473Z"
      fill="currentColor" />
  </g>
  <defs>
    <clipPath id="clip0_1224_140">
      <rect width="45" height="45" fill="transparent" transform="translate(15.2031) rotate(19.7451)" />
    </clipPath>
  </defs>
</svg>