<svg width="59" height="59" viewBox="0 0 59 59" fill="none" xmlns="http://www.w3.org/2000/svg">
  <g clip-path="url(#clip0_1224_135)">
    <path fill-rule="evenodd" clip-rule="evenodd"
      d="M31.358 22.9632C31.0918 22.6472 30.7496 22.4041 30.3637 22.2567C29.9777 22.1093 29.5606 22.0624 29.1516 22.1204C28.0326 22.3724 26.9669 22.8198 26.0034 23.4422C25.6203 23.6437 25.2227 23.8106 24.8105 23.943C24.6906 23.9889 24.5625 24.0097 24.4343 24.0041C24.306 23.9985 24.1802 23.9666 24.0648 23.9104C23.3478 23.4184 23.7305 22.7269 24.2914 22.1254C25.0358 21.3188 25.961 20.7004 26.9908 20.3209C27.1329 20.3059 27.2633 20.2357 27.3539 20.1253C27.4446 20.015 27.4882 19.8734 27.4753 19.7311C27.4614 19.6633 27.4336 19.599 27.3939 19.5423C27.3541 19.4856 27.3031 19.4377 27.2441 19.4015C27.185 19.3653 27.1192 19.3416 27.0506 19.3318C26.982 19.3221 26.9122 19.3265 26.8454 19.3449C26.2256 19.4574 25.6259 19.6613 25.0658 19.9497C25.0373 19.908 25.0176 19.8609 25.0077 19.8114C24.9676 19.6729 24.9115 19.5394 24.8408 19.4138C24.8165 19.276 24.7617 19.1455 24.6804 19.0317C24.456 18.7395 24.1915 18.5455 23.9572 18.2779C23.8956 18.1312 23.7782 18.0149 23.6309 17.9547C23.4836 17.8946 23.3184 17.8953 23.1717 17.9569C23.0253 18.0237 22.9106 18.1449 22.8521 18.2947C22.7935 18.4446 22.7956 18.6114 22.858 18.7597C22.8819 19.1293 22.9277 19.4971 22.9951 19.8613C23.0428 20.0039 23.1009 20.1422 23.1693 20.2762C23.2078 20.4227 23.2659 20.561 23.3435 20.6911L23.5416 20.8723C22.9722 21.2833 22.5003 21.8147 22.1595 22.4287C21.9063 22.9167 21.8421 23.4809 21.9793 24.0132C22.1165 24.5456 22.4454 25.0085 22.9029 25.3133C23.2136 25.5602 23.577 25.7323 23.9649 25.8163C24.3528 25.9002 24.7548 25.8939 25.1398 25.7976C26.1985 25.4849 27.2195 25.0562 28.1842 24.5194C28.5284 24.3115 28.9012 24.155 29.2907 24.0549C29.3987 24.0345 29.5102 24.0433 29.6137 24.0804C29.7172 24.1174 29.809 24.1813 29.8795 24.2656C29.9501 24.3499 29.997 24.4514 30.0153 24.5598C30.0336 24.6682 30.0227 24.7795 29.9838 24.8823C29.8171 25.3229 29.5648 25.7261 29.2413 26.0685C28.531 26.8259 27.6555 27.4092 26.683 27.773C26.3933 27.8638 26.0882 27.8951 25.7861 27.8649C25.4385 27.8393 25.0954 27.7717 24.7641 27.6636C24.6883 27.642 24.6089 27.6355 24.5306 27.6446C24.4523 27.6536 24.3765 27.678 24.3076 27.7164C24.2388 27.7548 24.1781 27.8063 24.1292 27.8681C24.0802 27.9299 24.044 28.0008 24.0224 28.0766C23.9683 28.2202 23.9712 28.3791 24.0306 28.5206C24.09 28.6621 24.2014 28.7754 24.3418 28.8373C24.8277 29.0129 25.3268 29.1362 25.8392 29.2071C26.2116 29.2351 26.5803 29.2091 26.9452 29.1291C27.268 29.0261 27.5792 28.8955 27.8788 28.7371C27.9268 28.8728 27.9825 29.0055 28.0457 29.1348C28.0937 29.2704 28.1495 29.4032 28.2127 29.5324C28.4543 29.8173 28.7015 30.0186 28.9532 30.2789C28.9832 30.3512 29.0275 30.4167 29.0834 30.4714C29.1394 30.5261 29.2058 30.569 29.2787 30.5975C29.3516 30.6259 29.4295 30.6394 29.5077 30.637C29.5859 30.6346 29.6628 30.6164 29.7339 30.5836C29.8075 30.5557 29.8745 30.5127 29.9304 30.4573C29.9864 30.4019 30.0301 30.3354 30.0587 30.262C30.0874 30.1886 30.1003 30.1101 30.0966 30.0314C30.0929 29.9528 30.0728 29.8758 30.0375 29.8054C30.0275 29.4327 29.9875 29.0631 29.9177 28.6966C29.8735 28.5429 29.813 28.3989 29.7362 28.2644C29.696 28.1258 29.64 27.9924 29.5693 27.8667C30.3238 27.3486 30.9644 26.6851 31.4559 25.9135C31.7611 25.4774 31.9164 24.954 31.8984 24.4221C31.8805 23.8901 31.6902 23.3784 31.3563 22.9639"
      fill="currentColor" />
    <path fill-rule="evenodd" clip-rule="evenodd"
      d="M14.1773 29.343C12.7373 28.3153 11.599 26.9205 10.8808 25.3036C10.1626 23.6868 9.89084 21.9071 10.0937 20.1496C10.1771 19.3804 10.455 18.6451 10.9012 18.0131C11.3474 17.381 11.9472 16.873 12.644 16.5369C14.1714 15.7392 15.9045 15.4227 17.6152 15.6291C18.926 15.8672 20.1726 16.3766 21.2751 17.1245C22.276 17.6194 22.843 17.178 23.1128 16.658C23.2077 16.3674 23.2671 16.0713 23.291 15.7698C23.4228 14.9213 23.2912 13.7361 23.4631 13.0315C23.7349 11.7318 24.3433 10.5267 25.2337 9.5428C26.0978 8.58081 27.2546 7.93005 28.5254 7.69102C29.3668 7.57886 30.2226 7.65236 31.0326 7.90637C31.8426 8.16037 32.5871 8.58871 33.2139 9.16128C34.5575 10.3175 35.6232 11.7613 36.3306 13.388C37.5873 16.617 37.8802 20.1412 37.1738 23.5333C36.5723 26.9679 34.9101 30.1278 32.4205 32.5691C32.3629 32.6207 32.3161 32.6832 32.2829 32.753C32.2497 32.8228 32.2308 32.8986 32.2272 32.9758C32.2237 33.0531 32.2356 33.1303 32.2622 33.2029C32.2889 33.2754 32.3297 33.342 32.3824 33.3986C32.4328 33.4585 32.4948 33.5077 32.5646 33.5431C32.6345 33.5785 32.7108 33.5994 32.7889 33.6046C32.8671 33.6097 32.9455 33.5991 33.0194 33.5732C33.0933 33.5473 33.1612 33.5068 33.2191 33.454C35.9673 30.8816 37.8399 27.5123 38.5733 23.8201C39.3668 20.1455 39.0957 16.3208 37.7918 12.7949C36.889 10.4946 35.3463 8.50096 33.3462 7.0498C31.9017 6.00999 30.1181 5.55334 28.3517 5.77105C26.6249 6.03032 25.0397 6.87536 23.8619 8.1645C22.683 9.39288 21.8609 10.9191 21.4837 12.5794C21.3924 13.35 21.3581 14.1264 21.3811 14.9021C20.2835 14.2463 19.0654 13.8172 17.7991 13.6404C15.2976 13.3512 12.7786 14.0098 10.7387 15.4863C10.0221 16.0205 9.43045 16.7045 9.00509 17.4906C8.57974 18.2768 8.33086 19.1462 8.27581 20.0384C8.10262 22.0766 8.47295 24.1243 9.34906 25.9727C10.2252 27.8212 11.5757 29.4043 13.263 30.5607C17.9149 33.6582 23.4339 35.1902 29.0168 34.9337C29.7207 34.9635 29.7125 34.0722 29.2143 33.8543C23.8495 33.99 18.5814 32.4095 14.1773 29.343Z"
      fill="currentColor" />
    <path fill-rule="evenodd" clip-rule="evenodd"
      d="M49.8122 29.3152C49.5773 28.8375 49.174 28.4636 48.68 28.2654C48.4643 28.2234 48.2424 28.2249 48.0273 28.2698C47.8122 28.3147 47.6082 28.4022 47.4273 28.527C46.5864 29.0427 44.545 30.5303 44.3603 30.6281C41.4515 32.0109 39.1589 34.4234 37.926 37.3988C37.0991 40.041 37.1289 42.8771 38.0111 45.5013C37.5099 44.695 37.026 43.8814 36.484 42.9295C35.9419 41.9776 35.3038 40.942 34.7192 39.9856C33.4701 38.087 32.3204 36.1248 31.2749 34.1069C31.2557 34.041 31.2233 33.9798 31.1796 33.9269C31.136 33.8739 31.0821 33.8304 31.0212 33.7989C30.9602 33.7675 30.8935 33.7487 30.8251 33.7438C30.7567 33.7389 30.688 33.748 30.6232 33.7704C29.2167 34.1983 30.9444 36.2792 32.5863 40.1897C32.9694 40.986 33.4006 41.7546 33.8798 42.4957C34.3347 43.2401 34.8315 43.9873 35.3317 44.6944C35.3615 44.7835 35.3979 44.8701 35.4406 44.9537C33.7505 43.8956 31.8768 43.1641 29.9169 42.797C28.0721 42.5269 26.1887 42.8279 24.5201 43.6598C23.8093 44.0046 23.1431 44.4346 22.536 44.9402C21.665 45.6312 20.8867 46.4461 20.0983 47.1838L18.7601 48.3557L17.9303 48.7041C17.7445 48.853 17.6117 49.0579 17.5516 49.2883C17.4915 49.5186 17.5074 49.7623 17.5968 49.9829C17.6745 50.1679 17.8011 50.3242 17.965 50.4384C18.5088 50.7795 19.1205 50.9965 19.7552 51.0696C20.8871 51.2471 22.3296 51.1906 23.0626 51.2895C26.2142 51.8174 29.4319 51.8149 32.5827 51.2823C34.757 50.8711 36.7424 49.7738 38.2474 48.1515C38.642 48.562 39.0652 48.9402 39.5168 49.286C39.6405 49.3881 39.7997 49.4368 39.9594 49.4214C40.119 49.4061 40.266 49.3279 40.368 49.2042C40.4701 49.0805 40.5188 48.9213 40.5034 48.7616C40.4881 48.602 40.4099 48.455 40.2862 48.3529C40.1689 48.2608 40.0631 48.1551 39.9709 48.0379C40.0689 48.0504 40.1684 48.0368 40.2594 47.9985C40.3504 47.9603 40.4298 47.8988 40.4896 47.8202C41.0293 46.9363 41.7064 46.144 42.4955 45.4731C44.6659 43.9775 46.6708 42.255 48.4764 40.3347C49.381 39.0922 50.0424 37.6898 50.4258 36.2015C50.817 34.6902 50.8893 33.1141 50.6383 31.5734C50.4942 30.7798 50.213 30.0132 49.8122 29.3152ZM37.4287 47.3157C36.0451 48.6556 34.2753 49.5267 32.3695 49.8059C29.3986 50.1481 26.3914 49.9944 23.4708 49.351C22.8633 49.2603 21.8393 49.2429 20.8625 49.1446L21.5662 48.5441C22.3128 47.8036 22.9756 47.0576 23.8643 46.3164C24.3446 45.8816 24.8628 45.5013 25.4189 45.1757C26.7568 44.4103 28.2956 44.0691 29.8317 44.1973C32.5654 44.6698 35.1636 45.7314 37.446 47.3085L37.4287 47.3157ZM48.4332 30.8744C48.5364 31.2138 48.6201 31.5589 48.6841 31.9078C48.8609 33.1864 48.777 34.4875 48.4375 35.7328C48.1721 37.0085 47.6674 38.2223 46.9501 39.31C45.3084 41.1981 43.4783 42.9137 41.4881 44.4299C40.629 45.2312 39.9007 46.1621 39.3297 47.1887L39.4022 47.3616C39.424 47.4135 39.1634 47.0348 39.0317 46.8664C39.1521 46.8219 39.251 46.7333 39.3086 46.6185C39.3661 46.5037 39.3779 46.3714 39.3415 46.2483C38.4232 43.5385 38.443 40.5985 39.3978 37.9013C40.6133 35.3724 42.7189 33.3805 45.3113 32.3071C45.4842 32.2345 47.1699 31.0184 48.1864 30.3883C48.2787 30.5434 48.3604 30.7057 48.4315 30.8751"
      fill="currentColor" />
  </g>
  <defs>
    <clipPath id="clip0_1224_135">
      <rect width="45" height="45" fill="transparent" transform="translate(0 17.4204) rotate(-22.7754)" />
    </clipPath>
  </defs>
</svg>